<svg width="17" height="14" viewBox="0 0 17 14" fill="none" xmlns="http://www.w3.org/2000/svg">
<path d="M14.896 2.16436C15.6132 1.73563 16.1498 1.06055 16.4056 0.265156C15.7317 0.664998 14.9944 0.946657 14.2256 1.09796C13.1597 -0.0296223 11.4708 -0.304023 10.1027 0.428081C8.73464 1.16018 8.02601 2.71755 8.37281 4.22996C5.6125 4.09137 3.04079 2.78749 1.29761 0.642756C0.387884 2.21189 0.852775 4.21778 2.36001 5.22676C1.81498 5.20923 1.28203 5.06167 0.805612 4.79636C0.805612 4.81076 0.805612 4.82516 0.805612 4.83956C0.805928 6.47408 1.95791 7.88202 3.56001 8.20596C3.05446 8.3435 2.52418 8.36375 2.00961 8.26516C2.46017 9.66297 3.74845 10.6206 5.21681 10.6492C4.00068 11.6037 2.49879 12.1213 0.952812 12.1188C0.678789 12.1192 0.404981 12.1034 0.132812 12.0716C1.70272 13.0804 3.52991 13.6158 5.39601 13.614C7.99221 13.6318 10.4872 12.6083 12.323 10.7724C14.1588 8.93646 15.1821 6.44135 15.164 3.84516C15.164 3.69636 15.1605 3.54836 15.1536 3.40116C15.826 2.91524 16.4063 2.31328 16.8672 1.62356C16.2408 1.90121 15.5764 2.08349 14.896 2.16436Z" fill="#2C2C2C"/>
</svg>
